<svg width="133" height="74" viewBox="0 0 133 74" fill="none" xmlns="http://www.w3.org/2000/svg">
<path id="Vector" d="M76.2673 57.1165C74.1088 57.9289 71.2032 56.8456 68.7126 53.1446C69.5428 55.6721 70.7051 59.1024 71.5353 61.7202C51.5279 41.4998 25.3771 29.494 0.0565186 47.0965C10.8489 44.8398 20.8111 53.5057 28.6148 61.0883C36.7506 45.3814 47.3769 58.651 53.1052 67.9488C57.5052 62.3521 64.1466 63.6159 69.4598 66.4142L69.7089 67.2266C71.6183 73.0039 76.7654 75.2606 80.9163 73.0941C85.3993 72.2817 88.388 67.0461 86.8106 61.2689L86.5616 60.3662C89.3842 54.7695 94.1162 49.4436 100.675 51.1587C100.26 39.875 101.671 22.453 116.78 29.9454C119.022 18.8422 122.425 5.48234 132.388 0.427246C102.418 2.3229 87.7238 28.7719 82.4107 57.9289C81.7465 55.3111 80.7503 51.7906 80.0862 49.1728C80.1692 53.6862 78.4258 56.3943 76.2673 57.1165Z" fill="#FE772D"/>
</svg>
