<svg width="89" height="36" viewBox="0 0 89 36" fill="none" xmlns="http://www.w3.org/2000/svg">
<path id="Vector" d="M46.903 12.1061C46.986 12.1061 47.069 12.1964 47.152 12.1964C47.6501 12.4672 48.1482 12.738 48.5633 13.099L52.2161 11.4742L50.4727 15.8071C50.7218 16.5293 50.8878 17.2514 50.8878 17.9736L69.4009 12.3769C69.4009 12.3769 88.9932 22.7579 88.3291 35.2151C88.3291 35.2151 76.8726 19.779 68.8198 21.133C68.8198 21.133 49.8916 26.4589 43.4162 26.7297C37.8539 22.9384 23.8238 8.22449 23.8238 8.22449C17.4314 2.71805 0.49572 9.93962 0.49572 9.93962C5.55984 -1.2538 27.3106 0.280777 27.3106 0.280777L40.8426 15.085C41.1747 14.4531 41.5898 13.8212 42.1709 13.3698L42.586 8.67584L44.9935 12.0158C45.4916 11.9255 46.0728 11.9255 46.6539 11.9255C46.6539 12.0158 46.8199 12.0158 46.903 12.1061Z" fill="#FE772D"/>
</svg>
