<svg width="66" height="51" viewBox="0 0 66 51" fill="none" xmlns="http://www.w3.org/2000/svg">
<path id="Vector" d="M22.6437 40.6807C21.5645 39.8683 20.9834 38.1531 21.6475 35.6256C20.9003 36.8894 19.9041 38.6948 19.1569 39.9585C20.4852 23.2587 16.2513 6.37831 0.22876 0.23999C4.9608 4.66319 4.87777 12.5166 4.46268 18.9258C13.7607 17.3912 12.0174 27.1403 10.191 33.1883C14.0098 33.3689 15.7532 37.0699 16.5003 40.5904L16.2513 41.0418C14.5909 43.9304 15.4211 47.2704 17.7456 48.5341C19.655 50.4298 22.8097 50.0687 24.6361 47.2704L24.8852 46.819C28.2059 46.2774 31.9417 46.6385 33.5191 50.4298C38.0021 46.2774 45.6398 40.8612 47.7982 50.7909C53.1114 47.9925 59.8359 44.9234 65.3151 48.0828C54.1076 34.2716 38.1681 36.3478 24.3871 43.9304C25.2173 42.6666 26.2965 41.0418 27.1267 39.778C25.3833 41.4028 23.7229 41.4931 22.6437 40.6807Z" fill="#FE772D"/>
</svg>
