<svg width="38" height="26" viewBox="0 0 38 26" fill="none" xmlns="http://www.w3.org/2000/svg">
<path id="Vector" d="M23.1548 20.8792C22.5737 21.2402 21.6605 21.0597 20.7473 20.0668C21.0793 20.7889 21.5774 21.7819 21.9925 22.504C15.102 17.5392 6.71716 15.3727 -0.00732422 21.9624C3.14737 20.6986 6.4681 22.7748 9.12469 24.5802C10.8681 19.4349 14.6039 22.8651 16.7624 25.3024C17.8416 23.4067 19.834 23.4067 21.5774 23.9483L21.6605 24.2191C22.4906 25.844 24.151 26.2051 25.2302 25.3926C26.5585 24.9413 27.2227 23.2262 26.4755 21.5111L26.3925 21.2402C26.9736 19.4349 28.1359 17.5392 30.2113 17.7197C29.5472 14.3798 29.2151 9.05387 34.0302 10.4982C34.1962 7.06795 34.6113 2.91555 37.3509 0.839355C28.468 3.00582 25.3133 11.6717 25.0642 20.6986C24.7321 19.9765 24.317 18.9835 23.985 18.2614C24.151 19.6154 23.7359 20.5181 23.1548 20.8792Z" fill="#FE772D"/>
</svg>
