<svg width="604" height="506" viewBox="0 0 604 506" fill="none" xmlns="http://www.w3.org/2000/svg">
<path d="M76.8264 329.196C73.2202 331.348 59.3112 339.687 58.0661 353.3C58.0661 353.3 51.4071 334.636 76.6255 317.561C76.6255 317.561 101.328 319.447 114.084 320.543C113.996 320.372 113.879 320.287 113.82 320.173C113.202 319.115 112.813 317.939 112.712 316.759L106.222 314.167L113.66 311.849C114.532 310.023 116.038 308.303 118.042 307.124C118.872 306.623 119.761 306.237 120.709 305.965L122.27 299.289L126.127 305.777C127.341 306.02 128.414 306.553 129.402 307.202L140.572 275.422C140.572 275.422 173.988 256.796 189.825 269.201C189.825 269.201 157.879 271.416 151.579 284.233C151.579 284.233 136.814 323.81 131.507 328.289C131.507 328.289 80.4326 327.045 76.8264 329.196Z" fill="#333333"/>
<path d="M76.8264 329.196C73.2202 331.348 59.3112 339.687 58.0661 353.3C58.0661 353.3 51.4071 334.636 76.6255 317.561C76.6255 317.561 101.328 319.447 114.084 320.543C113.996 320.372 113.879 320.287 113.82 320.173C113.202 319.115 112.813 317.939 112.712 316.759L106.222 314.167L113.66 311.849C114.532 310.023 116.038 308.303 118.042 307.124C118.872 306.623 119.761 306.237 120.709 305.965L122.27 299.289L126.127 305.777C127.341 306.02 128.414 306.553 129.402 307.202L140.572 275.422C140.572 275.422 173.988 256.796 189.825 269.201C189.825 269.201 157.879 271.416 151.579 284.233C151.579 284.233 136.814 323.81 131.507 328.289C131.507 328.289 80.4326 327.045 76.8264 329.196Z" fill="black" fill-opacity="0.6"/>
<path d="M396.439 61.8965C394.319 62.9908 392.758 65.0283 391.281 66.8053C389.641 64.7533 387.29 63.4309 384.579 63.3809C381.174 63.1097 380.252 65.5419 378.841 68.0094C375.141 64.9192 371.07 66.7311 368.575 70.1926L368.695 70.5655C368.774 72.264 366.14 73.7685 364.362 74.5414C361.867 75.612 359.931 75.2347 358.173 72.9537L357.535 72.703C353.543 71.5755 347.366 73.3869 345.891 77.6989C343.542 76.5206 341.48 75.3384 338.81 76.2096C336.455 76.9902 334.604 78.8875 334.086 81.2567C332.17 80.2165 330.8 78.9674 328.407 78.9708C324.892 79.1908 321.402 81.427 318.602 83.4523C320.264 77.9566 322.215 74.8481 327.224 71.9001C332.66 68.5143 339.719 68.1315 345.945 67.9615C349.345 67.8006 352.924 68.127 356.227 69.4654C357.3 69.9983 358.349 70.906 359.506 71.1786L359.704 70.859C359.896 70.1075 360.059 69.2987 360.396 68.5452C360.889 68.7978 361.186 69.514 361.426 70.2598C362.282 69.5281 363.921 69.1892 365.107 69.519C365.126 68.7121 365.202 67.8757 365.482 67.1518C365.953 67.9232 366.453 68.7519 367.068 69.5215L367.123 69.3479C366.803 66.7595 369.419 63.8149 371.1 62.1503C374.831 58.4129 380.533 55.5421 385.831 54.9812C392.511 54.2866 401.828 57.0134 406.164 62.6013C402.965 62.7307 400.023 60.264 396.439 61.8965Z" fill="#333333"/>
<path d="M396.439 61.8965C394.319 62.9908 392.758 65.0283 391.281 66.8053C389.641 64.7533 387.29 63.4309 384.579 63.3809C381.174 63.1097 380.252 65.5419 378.841 68.0094C375.141 64.9192 371.07 66.7311 368.575 70.1926L368.695 70.5655C368.774 72.264 366.14 73.7685 364.362 74.5414C361.867 75.612 359.931 75.2347 358.173 72.9537L357.535 72.703C353.543 71.5755 347.366 73.3869 345.891 77.6989C343.542 76.5206 341.48 75.3384 338.81 76.2096C336.455 76.9902 334.604 78.8875 334.086 81.2567C332.17 80.2165 330.8 78.9674 328.407 78.9708C324.892 79.1908 321.402 81.427 318.602 83.4523C320.264 77.9566 322.215 74.8481 327.224 71.9001C332.66 68.5143 339.719 68.1315 345.945 67.9615C349.345 67.8006 352.924 68.127 356.227 69.4654C357.3 69.9983 358.349 70.906 359.506 71.1786L359.704 70.859C359.896 70.1075 360.059 69.2987 360.396 68.5452C360.889 68.7978 361.186 69.514 361.426 70.2598C362.282 69.5281 363.921 69.1892 365.107 69.519C365.126 68.7121 365.202 67.8757 365.482 67.1518C365.953 67.9232 366.453 68.7519 367.068 69.5215L367.123 69.3479C366.803 66.7595 369.419 63.8149 371.1 62.1503C374.831 58.4129 380.533 55.5421 385.831 54.9812C392.511 54.2866 401.828 57.0134 406.164 62.6013C402.965 62.7307 400.023 60.264 396.439 61.8965Z" fill="black" fill-opacity="0.6"/>
<path d="M84.5714 227.663C84.5714 227.663 84.6181 226.769 85.5939 226.41C85.5939 226.41 84.9743 227.6 86.1604 227.929C87.3743 228.172 92.2889 229.259 93.2612 228.612C94.2907 227.936 94.4591 227.559 94.4591 227.559C94.4591 227.559 92.3243 225.11 93.3208 224.088C93.3208 224.088 95.1112 224.324 95.9399 226.07C95.9399 226.07 96.2524 225.691 96.9973 225.307C97.7439 225.066 98.2631 225.088 98.2631 225.088C97.6931 223.281 98.7711 221.855 98.7711 221.855C100.155 221.865 100.368 225.088 100.368 225.088C100.368 225.088 100.745 225.256 101.924 225.01C103.132 224.821 105.906 220.635 106.614 219.618C107.323 218.6 105.991 218.128 105.991 218.128C106.937 217.712 107.607 218.308 107.607 218.308C116.227 215.888 119.272 222.069 119.272 222.069C115.569 223.329 115.106 225.524 115.106 225.524C109.926 226.314 109.225 230.299 109.225 230.299C103.618 231.526 103.479 236.598 103.479 236.598C102.536 237.302 102.438 238.658 102.471 239.003C102.238 238.833 101.217 237.839 100.065 237.998C100.065 237.998 96.4752 234.417 91.5529 237.392C91.5529 237.392 88.2946 235.016 83.9784 238.041C83.9784 238.041 82.0888 236.77 78.5919 238.43C78.7656 238.486 76.6957 231.945 84.5714 227.663Z" fill="#333333"/>
<path d="M84.5714 227.663C84.5714 227.663 84.6181 226.769 85.5939 226.41C85.5939 226.41 84.9743 227.6 86.1604 227.929C87.3743 228.172 92.2889 229.259 93.2612 228.612C94.2907 227.936 94.4591 227.559 94.4591 227.559C94.4591 227.559 92.3243 225.11 93.3208 224.088C93.3208 224.088 95.1112 224.324 95.9399 226.07C95.9399 226.07 96.2524 225.691 96.9973 225.307C97.7439 225.066 98.2631 225.088 98.2631 225.088C97.6931 223.281 98.7711 221.855 98.7711 221.855C100.155 221.865 100.368 225.088 100.368 225.088C100.368 225.088 100.745 225.256 101.924 225.01C103.132 224.821 105.906 220.635 106.614 219.618C107.323 218.6 105.991 218.128 105.991 218.128C106.937 217.712 107.607 218.308 107.607 218.308C116.227 215.888 119.272 222.069 119.272 222.069C115.569 223.329 115.106 225.524 115.106 225.524C109.926 226.314 109.225 230.299 109.225 230.299C103.618 231.526 103.479 236.598 103.479 236.598C102.536 237.302 102.438 238.658 102.471 239.003C102.238 238.833 101.217 237.839 100.065 237.998C100.065 237.998 96.4752 234.417 91.5529 237.392C91.5529 237.392 88.2946 235.016 83.9784 238.041C83.9784 238.041 82.0888 236.77 78.5919 238.43C78.7656 238.486 76.6957 231.945 84.5714 227.663Z" fill="black" fill-opacity="0.6"/>
<path d="M339.186 347.97C339.186 347.97 339.389 345.691 341.827 344.65C341.827 344.65 340.193 347.812 343.373 348.49C346.553 349.167 359.041 351.852 361.643 350.146C364.303 348.41 364.753 347.454 364.753 347.454C364.753 347.454 359.312 341.132 361.847 338.591C361.847 338.591 366.468 339.25 368.598 343.657C368.598 343.657 369.45 342.638 371.256 341.778C373.18 341.147 374.536 341.244 374.536 341.244C373.066 336.568 375.904 332.929 375.904 332.929C379.567 332.995 379.958 341.344 379.958 341.344C379.958 341.344 380.885 341.735 383.992 341.146C387.098 340.557 394.205 330.005 396.074 327.3C397.886 324.626 394.528 323.461 394.528 323.461C397.052 322.448 398.772 323.951 398.772 323.951C420.982 317.777 428.731 333.632 428.731 333.632C419.198 336.813 418 342.504 418 342.504C404.676 344.527 402.871 354.806 402.871 354.806C388.466 357.967 388.135 370.963 388.135 370.963C385.679 372.811 385.52 376.299 385.501 377.106C384.917 376.537 382.38 374.152 379.386 374.537C379.386 374.537 370.163 365.385 357.572 373.044C357.572 373.044 349.164 366.877 338.16 374.659C338.16 374.659 333.39 371.324 324.247 375.681C324.247 375.681 318.908 358.872 339.186 347.97Z" fill="#333333"/>
<path d="M339.186 347.97C339.186 347.97 339.389 345.691 341.827 344.65C341.827 344.65 340.193 347.812 343.373 348.49C346.553 349.167 359.041 351.852 361.643 350.146C364.303 348.41 364.753 347.454 364.753 347.454C364.753 347.454 359.312 341.132 361.847 338.591C361.847 338.591 366.468 339.25 368.598 343.657C368.598 343.657 369.45 342.638 371.256 341.778C373.18 341.147 374.536 341.244 374.536 341.244C373.066 336.568 375.904 332.929 375.904 332.929C379.567 332.995 379.958 341.344 379.958 341.344C379.958 341.344 380.885 341.735 383.992 341.146C387.098 340.557 394.205 330.005 396.074 327.3C397.886 324.626 394.528 323.461 394.528 323.461C397.052 322.448 398.772 323.951 398.772 323.951C420.982 317.777 428.731 333.632 428.731 333.632C419.198 336.813 418 342.504 418 342.504C404.676 344.527 402.871 354.806 402.871 354.806C388.466 357.967 388.135 370.963 388.135 370.963C385.679 372.811 385.52 376.299 385.501 377.106C384.917 376.537 382.38 374.152 379.386 374.537C379.386 374.537 370.163 365.385 357.572 373.044C357.572 373.044 349.164 366.877 338.16 374.659C338.16 374.659 333.39 371.324 324.247 375.681C324.247 375.681 318.908 358.872 339.186 347.97Z" fill="black" fill-opacity="0.6"/>
<path d="M291.543 311.621C291.361 315.628 291.465 319.343 286.344 320.247C282.085 320.851 280.547 317.732 277.784 315.753L277.466 315.699C273.607 313.706 270.255 313.117 265.833 314.53C263.733 307.933 256.34 302.185 250.664 307.216C245.51 298.355 239.974 293.676 229.748 291.998L228.791 291.55C250.791 287.078 263.664 299.926 278.988 312.885L278.953 312.395C278.586 310.701 278.249 309.063 277.94 307.339C279.524 309.565 280.38 311.224 283.367 310.262C286.011 309.622 286.731 307.221 286.785 304.512C287.582 306.057 288.017 308.586 288.983 309.755C290.05 307.464 289.81 304.328 289.922 301.734C290.172 296.314 292.794 289.164 295.912 284.801C299.224 279.831 303.064 275.602 307.922 272.08C310.266 270.435 314.51 266.288 317.711 266.302C312.488 270.665 312.405 277.954 313.289 284.164C306.472 278.408 307.465 293.547 307.787 296.28C301.292 300.285 295.298 302.871 292.306 310.43L291.543 311.621Z" fill="#333333"/>
<path d="M291.543 311.621C291.361 315.628 291.465 319.343 286.344 320.247C282.085 320.851 280.547 317.732 277.784 315.753L277.466 315.699C273.607 313.706 270.255 313.117 265.833 314.53C263.733 307.933 256.34 302.185 250.664 307.216C245.51 298.355 239.974 293.676 229.748 291.998L228.791 291.55C250.791 287.078 263.664 299.926 278.988 312.885L278.953 312.395C278.586 310.701 278.249 309.063 277.94 307.339C279.524 309.565 280.38 311.224 283.367 310.262C286.011 309.622 286.731 307.221 286.785 304.512C287.582 306.057 288.017 308.586 288.983 309.755C290.05 307.464 289.81 304.328 289.922 301.734C290.172 296.314 292.794 289.164 295.912 284.801C299.224 279.831 303.064 275.602 307.922 272.08C310.266 270.435 314.51 266.288 317.711 266.302C312.488 270.665 312.405 277.954 313.289 284.164C306.472 278.408 307.465 293.547 307.787 296.28C301.292 300.285 295.298 302.871 292.306 310.43L291.543 311.621Z" fill="black" fill-opacity="0.6"/>
<path d="M346.179 178.347C345.839 185.841 345.983 192.868 336.461 194.523C328.431 195.696 325.563 189.858 320.385 186.154L319.894 186.046C312.64 182.254 306.256 181.274 298.013 183.862C294.171 171.498 280.2 160.739 269.533 170.158C259.815 153.58 249.442 144.732 230.347 141.618L228.547 140.662C269.787 132.273 293.985 156.377 322.711 180.678L322.728 179.728C322.055 176.597 321.382 173.466 320.767 170.305C323.701 174.443 325.412 177.617 330.897 175.873C335.928 174.653 337.17 170.171 337.309 165.099C338.873 167.988 339.739 172.758 341.351 174.897C343.345 170.607 342.84 164.708 343.04 159.895C343.578 149.69 348.459 136.373 354.297 128.142C360.438 118.813 367.721 110.851 376.751 104.306C381.182 101.221 389.187 93.3936 395.184 93.4859C385.309 101.627 385.249 115.426 386.861 126.985C374.043 116.21 375.834 144.561 376.474 149.738C364.371 157.217 353.1 162.093 347.452 176.313L346.179 178.347Z" fill="#333333"/>
<path d="M346.179 178.347C345.839 185.841 345.983 192.868 336.461 194.523C328.431 195.696 325.563 189.858 320.385 186.154L319.894 186.046C312.64 182.254 306.256 181.274 298.013 183.862C294.171 171.498 280.2 160.739 269.533 170.158C259.815 153.58 249.442 144.732 230.347 141.618L228.547 140.662C269.787 132.273 293.985 156.377 322.711 180.678L322.728 179.728C322.055 176.597 321.382 173.466 320.767 170.305C323.701 174.443 325.412 177.617 330.897 175.873C335.928 174.653 337.17 170.171 337.309 165.099C338.873 167.988 339.739 172.758 341.351 174.897C343.345 170.607 342.84 164.708 343.04 159.895C343.578 149.69 348.459 136.373 354.297 128.142C360.438 118.813 367.721 110.851 376.751 104.306C381.182 101.221 389.187 93.3936 395.184 93.4859C385.309 101.627 385.249 115.426 386.861 126.985C374.043 116.21 375.834 144.561 376.474 149.738C364.371 157.217 353.1 162.093 347.452 176.313L346.179 178.347Z" fill="black" fill-opacity="0.6"/>
<path d="M204.632 124.53C204.292 132.025 204.436 139.052 194.913 140.706C186.884 141.88 184.015 136.042 178.838 132.338L178.347 132.229C171.092 128.437 164.709 127.457 156.466 130.045C152.623 117.681 138.652 106.922 127.986 116.341C118.267 99.7635 107.895 90.915 88.7992 87.801L86.9999 86.8457C128.24 78.4565 152.437 102.56 181.164 126.862L181.181 125.911C180.508 122.78 179.835 119.649 179.219 116.489C182.153 120.626 183.865 123.801 189.35 122.056C194.38 120.836 195.622 116.355 195.762 111.283C197.325 114.171 198.191 118.942 199.803 121.081C201.798 116.79 201.293 110.892 201.493 106.078C202.03 95.8733 206.912 82.5565 212.749 74.3258C218.891 64.9963 226.173 57.0342 235.203 50.489C239.634 47.4047 247.639 39.577 253.637 39.6693C243.762 47.8102 243.701 61.6096 245.314 73.1683C232.496 62.3938 234.286 90.7446 234.927 95.9213C222.823 103.401 211.553 108.276 205.904 122.497L204.632 124.53Z" fill="#333333"/>
<path d="M204.632 124.53C204.292 132.025 204.436 139.052 194.913 140.706C186.884 141.88 184.015 136.042 178.838 132.338L178.347 132.229C171.092 128.437 164.709 127.457 156.466 130.045C152.623 117.681 138.652 106.922 127.986 116.341C118.267 99.7635 107.895 90.915 88.7992 87.801L86.9999 86.8457C128.24 78.4565 152.437 102.56 181.164 126.862L181.181 125.911C180.508 122.78 179.835 119.649 179.219 116.489C182.153 120.626 183.865 123.801 189.35 122.056C194.38 120.836 195.622 116.355 195.762 111.283C197.325 114.171 198.191 118.942 199.803 121.081C201.798 116.79 201.293 110.892 201.493 106.078C202.03 95.8733 206.912 82.5565 212.749 74.3258C218.891 64.9963 226.173 57.0342 235.203 50.489C239.634 47.4047 247.639 39.577 253.637 39.6693C243.762 47.8102 243.701 61.6096 245.314 73.1683C232.496 62.3938 234.286 90.7446 234.927 95.9213C222.823 103.401 211.553 108.276 205.904 122.497L204.632 124.53Z" fill="black" fill-opacity="0.6"/>
<path d="M194.281 223.712C194.077 228.238 194.158 232.471 188.376 233.499C183.512 234.198 181.768 230.679 178.656 228.445L178.338 228.391C173.956 226.088 170.085 225.477 165.088 227.042C162.747 219.555 154.306 213.043 147.832 218.776C141.913 208.715 135.678 203.383 124.122 201.522L123.02 200.932C147.982 195.872 162.635 210.483 179.999 225.143L179.992 224.567C179.594 222.671 179.195 220.775 178.768 218.822C180.557 221.304 181.561 223.249 184.864 222.197C187.882 221.436 188.685 218.775 188.762 215.691C189.735 217.436 190.203 220.31 191.257 221.65C192.465 219.07 192.133 215.473 192.299 212.562C192.598 206.393 195.555 198.345 199.097 193.4C202.863 187.761 207.185 182.921 212.701 178.987C215.389 177.165 220.173 172.376 223.836 172.442C217.87 177.333 217.829 185.688 218.781 192.732C211.06 186.211 212.136 203.336 212.463 206.501C205.138 211.006 198.342 214.007 194.93 222.58L194.281 223.712Z" fill="#333333"/>
<path d="M194.281 223.712C194.077 228.238 194.158 232.471 188.376 233.499C183.512 234.198 181.768 230.679 178.656 228.445L178.338 228.391C173.956 226.088 170.085 225.477 165.088 227.042C162.747 219.555 154.306 213.043 147.832 218.776C141.913 208.715 135.678 203.383 124.122 201.522L123.02 200.932C147.982 195.872 162.635 210.483 179.999 225.143L179.992 224.567C179.594 222.671 179.195 220.775 178.768 218.822C180.557 221.304 181.561 223.249 184.864 222.197C187.882 221.436 188.685 218.775 188.762 215.691C189.735 217.436 190.203 220.31 191.257 221.65C192.465 219.07 192.133 215.473 192.299 212.562C192.598 206.393 195.555 198.345 199.097 193.4C202.863 187.761 207.185 182.921 212.701 178.987C215.389 177.165 220.173 172.376 223.836 172.442C217.87 177.333 217.829 185.688 218.781 192.732C211.06 186.211 212.136 203.336 212.463 206.501C205.138 211.006 198.342 214.007 194.93 222.58L194.281 223.712Z" fill="black" fill-opacity="0.6"/>
<path d="M496.094 166.251C495.89 170.777 496.001 175.068 490.189 176.039C485.325 176.738 483.581 173.218 480.468 170.984L480.151 170.931C475.769 168.627 471.898 168.017 466.901 169.582C464.56 162.094 456.119 155.582 449.615 161.258C443.726 151.255 437.461 145.866 425.906 144.004L424.803 143.414C449.766 138.355 464.419 152.965 481.782 167.625L481.775 167.049C481.377 165.153 480.979 163.257 480.638 161.331C482.427 163.813 483.431 165.759 486.734 164.706C489.752 163.946 490.555 161.285 490.632 158.201C491.605 159.945 492.073 162.82 493.128 164.159C494.306 161.522 494.06 157.953 494.169 155.071C494.468 148.903 497.482 140.825 500.938 135.853C504.79 130.241 509.17 125.371 514.656 121.38C517.344 119.558 522.129 114.769 525.791 114.835C519.825 119.726 519.784 128.081 520.736 135.126C513.015 128.604 514.091 145.73 514.418 148.894C507.093 153.4 500.297 156.401 496.886 164.973L496.094 166.251Z" fill="#333333"/>
<path d="M496.094 166.251C495.89 170.777 496.001 175.068 490.189 176.039C485.325 176.738 483.581 173.218 480.468 170.984L480.151 170.931C475.769 168.627 471.898 168.017 466.901 169.582C464.56 162.094 456.119 155.582 449.615 161.258C443.726 151.255 437.461 145.866 425.906 144.004L424.803 143.414C449.766 138.355 464.419 152.965 481.782 167.625L481.775 167.049C481.377 165.153 480.979 163.257 480.638 161.331C482.427 163.813 483.431 165.759 486.734 164.706C489.752 163.946 490.555 161.285 490.632 158.201C491.605 159.945 492.073 162.82 493.128 164.159C494.306 161.522 494.06 157.953 494.169 155.071C494.468 148.903 497.482 140.825 500.938 135.853C504.79 130.241 509.17 125.371 514.656 121.38C517.344 119.558 522.129 114.769 525.791 114.835C519.825 119.726 519.784 128.081 520.736 135.126C513.015 128.604 514.091 145.73 514.418 148.894C507.093 153.4 500.297 156.401 496.886 164.973L496.094 166.251Z" fill="black" fill-opacity="0.6"/>
<path d="M414.446 264.629C414.242 269.154 414.323 273.388 408.541 274.416C403.677 275.115 401.933 271.595 398.82 269.361L398.503 269.308C394.121 267.005 390.25 266.394 385.253 267.959C382.912 260.472 374.471 253.96 367.967 259.636C362.048 249.575 355.813 244.243 344.258 242.382L343.155 241.792C368.118 236.732 382.77 251.342 400.134 266.002L400.127 265.426C399.729 263.53 399.331 261.634 398.903 259.681C400.692 262.163 401.696 264.109 405.056 263.027C408.074 262.266 408.877 259.605 408.955 256.521C409.928 258.266 410.396 261.14 411.45 262.48C412.658 259.9 412.325 256.303 412.491 253.392C412.79 247.223 415.747 239.175 419.29 234.23C423.055 228.591 427.378 223.751 432.894 219.817C435.581 217.995 440.366 213.206 444.086 213.243C438.063 218.163 438.022 226.518 439.03 233.533C431.31 227.011 432.329 244.166 432.77 247.271C425.445 251.777 418.649 254.778 415.18 263.38L414.446 264.629Z" fill="#333333"/>
<path d="M414.446 264.629C414.242 269.154 414.323 273.388 408.541 274.416C403.677 275.115 401.933 271.595 398.82 269.361L398.503 269.308C394.121 267.005 390.25 266.394 385.253 267.959C382.912 260.472 374.471 253.96 367.967 259.636C362.048 249.575 355.813 244.243 344.258 242.382L343.155 241.792C368.118 236.732 382.77 251.342 400.134 266.002L400.127 265.426C399.729 263.53 399.331 261.634 398.903 259.681C400.692 262.163 401.696 264.109 405.056 263.027C408.074 262.266 408.877 259.605 408.955 256.521C409.928 258.266 410.396 261.14 411.45 262.48C412.658 259.9 412.325 256.303 412.491 253.392C412.79 247.223 415.747 239.175 419.29 234.23C423.055 228.591 427.378 223.751 432.894 219.817C435.581 217.995 440.366 213.206 444.086 213.243C438.063 218.163 438.022 226.518 439.03 233.533C431.31 227.011 432.329 244.166 432.77 247.271C425.445 251.777 418.649 254.778 415.18 263.38L414.446 264.629Z" fill="black" fill-opacity="0.6"/>
<path d="M121.441 281.094C121.384 283.515 121.383 285.762 118.334 286.321C115.715 286.731 114.798 284.813 113.169 283.625L112.995 283.57C110.702 282.362 108.652 282.044 105.952 282.858C104.692 278.871 100.209 275.388 96.7868 278.458C93.665 273.113 90.3146 270.278 84.1323 269.266L83.5522 268.986C96.8671 266.243 104.661 274.031 113.955 281.915L113.951 281.627C113.708 280.593 113.551 279.587 113.308 278.553C114.276 279.865 114.807 280.895 116.559 280.353C118.169 279.957 118.584 278.511 118.621 276.898C119.094 277.813 119.402 279.393 119.957 280.048C120.603 278.628 120.436 276.758 120.503 275.201C120.693 271.915 122.255 267.631 124.125 264.926C126.135 261.932 128.496 259.337 131.411 257.252C132.84 256.225 135.404 253.742 137.364 253.744C134.226 256.379 134.194 260.816 134.672 264.554C130.564 261.095 131.138 270.219 131.361 271.916C127.44 274.302 123.827 275.877 122.01 280.511L121.441 281.094Z" fill="#333333"/>
<path d="M121.441 281.094C121.384 283.515 121.383 285.762 118.334 286.321C115.715 286.731 114.798 284.813 113.169 283.625L112.995 283.57C110.702 282.362 108.652 282.044 105.952 282.858C104.692 278.871 100.209 275.388 96.7868 278.458C93.665 273.113 90.3146 270.278 84.1323 269.266L83.5522 268.986C96.8671 266.243 104.661 274.031 113.955 281.915L113.951 281.627C113.708 280.593 113.551 279.587 113.308 278.553C114.276 279.865 114.807 280.895 116.559 280.353C118.169 279.957 118.584 278.511 118.621 276.898C119.094 277.813 119.402 279.393 119.957 280.048C120.603 278.628 120.436 276.758 120.503 275.201C120.693 271.915 122.255 267.631 124.125 264.926C126.135 261.932 128.496 259.337 131.411 257.252C132.84 256.225 135.404 253.742 137.364 253.744C134.226 256.379 134.194 260.816 134.672 264.554C130.564 261.095 131.138 270.219 131.361 271.916C127.44 274.302 123.827 275.877 122.01 280.511L121.441 281.094Z" fill="black" fill-opacity="0.6"/>
</svg>
