<svg viewBox="0 0 240 213" fill="none" xmlns="http://www.w3.org/2000/svg">
<g id="pumpkin-orange">
<g id="top">
<path id="Union" fill-rule="evenodd" clip-rule="evenodd" d="M81.2481 9.09342C79.6428 7.57572 77.1111 7.6467 75.5934 9.25197C74.0757 10.8572 74.1467 13.3889 75.752 14.9066C80.0781 18.9968 82.9419 22.5248 84.7607 25.4831C82.1068 25.6192 79.8471 25.988 77.9397 26.5701C74.8178 27.5227 72.3875 29.134 70.9584 31.4656C69.5179 33.8158 69.4427 36.3302 69.9311 38.3695C70.4043 40.3455 71.4478 42.1043 72.6717 43.3282C75.5118 46.1685 79.634 47.0393 83.2395 46.6308C86.9014 46.2158 90.7793 44.4108 93.2185 40.913C94.4694 39.1193 95.2315 37.0417 95.4558 34.7496C98.8636 36.1659 101.543 38.645 103.65 41.6146C106.868 46.1487 108.53 51.5695 109.042 55.0771C109.361 57.2631 111.391 58.7768 113.577 58.458C115.581 58.1658 117.02 56.4352 117 54.465C118.691 55.4433 120.887 55.0597 122.136 53.4832C123.836 51.3358 126.559 48.3298 129.733 46.1895C132.95 44.0214 135.988 43.1522 138.731 43.9579C147.072 46.4075 154.594 41.8366 155.907 35.8583C156.381 33.7006 155.016 31.5672 152.858 31.0932C150.701 30.6192 148.567 31.9841 148.093 34.1417C147.954 34.7767 145.72 37.6725 140.986 36.2821C134.946 34.5084 129.371 36.7858 125.262 39.556C121.111 42.3539 117.796 46.0775 115.864 48.5168C115.831 48.559 115.798 48.6018 115.767 48.6449C114.661 44.9495 112.861 40.7705 110.175 36.9852C106.607 31.9566 101.323 27.4442 93.9723 25.9721C91.9484 20.9726 87.8695 15.3537 81.2481 9.09342ZM80.2746 34.2217C81.838 33.7447 84.1661 33.3984 87.5265 33.4254C87.4994 34.7635 87.1023 35.6977 86.6566 36.3369C85.7833 37.5892 84.1924 38.4716 82.3388 38.6816C80.4287 38.8981 78.9884 38.3313 78.3286 37.6715C78.1273 37.4702 77.8332 37.0164 77.7111 36.5064C77.6041 36.0597 77.6758 35.8148 77.7791 35.6463C77.8938 35.4592 78.4042 34.7925 80.2746 34.2217Z" fill="black"/>
<path id="Vector 259 (Stroke)" fill-rule="evenodd" clip-rule="evenodd" d="M126.425 38.6339C126.008 42.8601 126 47.5628 126 53H108L108 52.761C108 47.5992 108 42.0596 108.512 36.8661C109.034 31.5834 110.135 25.9898 112.737 20.9024C115.444 15.6081 119.625 11.1664 125.671 8.18033C131.054 5.52193 137.502 4.2186 144.999 4.02538C146.104 3.99693 147 4.89543 147 6V20C147 21.1046 146.103 21.9956 144.999 22.0333C139.509 22.2209 135.953 23.1782 133.641 24.3197C131.25 25.5003 129.806 27.0586 128.763 29.0976C127.615 31.3436 126.841 34.4166 126.425 38.6339Z" fill="#FF9838" stroke="black" stroke-width="8"/>
</g>
<g id="body">
<mask id="path-3-inside-1_7_2642" fill="white">
<path fill-rule="evenodd" clip-rule="evenodd" d="M239.143 108.448C234.309 55.1942 191.869 41.8321 166.247 60.3858C166.166 60.4442 166.055 60.4368 165.983 60.3679C164.725 59.1626 153.712 49.2768 129.087 47.2339C120.757 47.2025 113.133 47.247 110.363 47.2731C85.89 49.4205 75.0149 59.3279 73.8762 60.4282C73.8127 60.4896 73.7224 60.5 73.6439 60.4595C47.3817 46.9285 5.61292 55.3031 0.856319 108.585C-3.92784 161.956 11.7775 191.21 36.8944 202.798C61.6638 214.221 81.8308 203.279 85.3487 201.158C85.6284 200.989 86.0318 201.099 86.2412 201.35C87.5821 202.956 93.7473 207.637 120.049 207.621C146.362 207.621 152.519 202.925 153.857 201.313C154.066 201.062 154.47 200.951 154.75 201.119C158.275 203.239 178.455 214.157 203.203 202.699C228.3 191.092 243.966 161.799 239.123 108.448H239.143Z"/>
</mask>
<path fill-rule="evenodd" clip-rule="evenodd" d="M239.143 108.448C234.309 55.1942 191.869 41.8321 166.247 60.3858C166.166 60.4442 166.055 60.4368 165.983 60.3679C164.725 59.1626 153.712 49.2768 129.087 47.2339C120.757 47.2025 113.133 47.247 110.363 47.2731C85.89 49.4205 75.0149 59.3279 73.8762 60.4282C73.8127 60.4896 73.7224 60.5 73.6439 60.4595C47.3817 46.9285 5.61292 55.3031 0.856319 108.585C-3.92784 161.956 11.7775 191.21 36.8944 202.798C61.6638 214.221 81.8308 203.279 85.3487 201.158C85.6284 200.989 86.0318 201.099 86.2412 201.35C87.5821 202.956 93.7473 207.637 120.049 207.621C146.362 207.621 152.519 202.925 153.857 201.313C154.066 201.062 154.47 200.951 154.75 201.119C158.275 203.239 178.455 214.157 203.203 202.699C228.3 191.092 243.966 161.799 239.123 108.448H239.143Z" fill="#FF9838"/>
<path d="M166.247 60.3858L170.939 66.8655L170.939 66.8653L166.247 60.3858ZM239.143 108.448V116.448H247.902L247.11 107.724L239.143 108.448ZM165.983 60.3679L171.517 54.5907L171.516 54.5902L165.983 60.3679ZM129.087 47.2339L129.749 39.2613L129.434 39.2352L129.118 39.234L129.087 47.2339ZM110.363 47.2731L110.287 39.2735L109.975 39.2764L109.663 39.3037L110.363 47.2731ZM73.8762 60.4282L68.3173 54.6751L68.3172 54.6752L73.8762 60.4282ZM73.6439 60.4595L69.9798 67.5711L73.6439 60.4595ZM0.856319 108.585L8.82437 109.299L8.82463 109.296L0.856319 108.585ZM36.8944 202.798L33.543 210.062L33.5439 210.062L36.8944 202.798ZM85.3487 201.158L81.2177 194.307L81.2176 194.307L85.3487 201.158ZM86.2412 201.35L80.1006 206.478L80.1007 206.478L86.2412 201.35ZM120.049 207.621V199.621H120.044L120.049 207.621ZM153.857 201.313L160.012 206.424L160.012 206.424L153.857 201.313ZM154.75 201.119L158.874 194.264L158.874 194.264L154.75 201.119ZM203.203 202.699L199.845 195.438L199.842 195.44L203.203 202.699ZM239.123 108.448V100.448H230.364L231.156 109.171L239.123 108.448ZM170.939 66.8653C181.272 59.3832 195.007 58.3067 206.73 64.5501C218.288 70.7058 228.949 84.644 231.176 109.171L247.11 107.724C244.502 78.9978 231.526 59.6282 214.251 50.428C197.14 41.3154 176.844 42.8346 161.555 53.9062L170.939 66.8653ZM160.449 66.1451C163.326 68.9007 167.743 69.1798 170.939 66.8655L161.555 53.906C164.59 51.7086 168.784 51.9729 171.517 54.5907L160.449 66.1451ZM128.426 55.2065C150.955 57.0755 160.307 66.0092 160.45 66.1456L171.516 54.5902C169.142 52.3161 156.47 41.478 129.749 39.2613L128.426 55.2065ZM110.438 55.2728C113.177 55.2469 120.766 55.2026 129.057 55.2338L129.118 39.234C120.749 39.2024 113.089 39.247 110.287 39.2735L110.438 55.2728ZM79.4351 66.1813C79.4687 66.1489 88.6899 57.2055 111.062 55.2425L109.663 39.3037C83.09 41.6354 70.5612 52.507 68.3173 54.6751L79.4351 66.1813ZM69.9798 67.5711C72.8975 69.0744 76.7415 68.7841 79.4352 66.1812L68.3172 54.6752C70.8839 52.195 74.5472 51.9255 77.308 53.348L69.9798 67.5711ZM8.82463 109.296C11.0073 84.8468 21.3951 72.2298 32.7242 66.6422C44.4738 60.8472 58.7947 61.8082 69.9798 67.5711L77.308 53.348C62.2309 45.5798 42.5364 43.9626 25.6468 52.2926C8.33686 60.83 -4.53806 79.0412 -7.11199 107.874L8.82463 109.296ZM40.2458 195.533C19.5717 185.995 4.18024 161.108 8.82437 109.299L-7.11173 107.871C-12.0359 162.804 3.98342 196.424 33.543 210.062L40.2458 195.533ZM81.2176 194.307C78.5159 195.936 61.3916 205.286 40.2449 195.533L33.5439 210.062C61.936 223.157 85.1458 210.622 89.4799 208.009L81.2176 194.307ZM92.3817 196.222C91.0783 194.661 89.3587 193.707 87.639 193.306C85.9109 192.903 83.5122 192.923 81.2177 194.307L89.4798 208.009C87.465 209.224 85.4078 209.215 84.0037 208.888C82.6079 208.562 81.1947 207.788 80.1006 206.478L92.3817 196.222ZM120.044 199.621C107.297 199.629 99.9578 198.49 95.8988 197.378C91.8006 196.255 91.6316 195.324 92.3817 196.222L80.1007 206.478C82.1918 208.982 85.7758 211.194 91.6707 212.809C97.6048 214.435 106.499 215.629 120.053 215.621L120.044 199.621ZM147.702 196.203C148.452 195.299 148.289 196.231 144.195 197.358C140.139 198.475 132.801 199.621 120.049 199.621V215.621C133.61 215.621 142.507 214.419 148.442 212.784C154.339 211.161 157.923 208.939 160.012 206.424L147.702 196.203ZM158.874 194.264C156.574 192.88 154.172 192.865 152.445 193.271C150.726 193.676 149.004 194.634 147.702 196.203L160.012 206.424C158.918 207.741 157.503 208.518 156.109 208.846C154.706 209.176 152.646 209.189 150.627 207.975L158.874 194.264ZM199.842 195.44C178.716 205.221 161.582 195.893 158.874 194.264L150.627 207.975C154.968 210.586 178.194 223.094 206.564 209.959L199.842 195.44ZM231.156 109.171C235.857 160.964 220.498 185.886 199.845 195.438L206.561 209.961C236.102 196.298 252.075 162.634 247.09 107.724L231.156 109.171ZM239.143 100.448H239.123V116.448H239.143V100.448Z" fill="black" mask="url(#path-3-inside-1_7_2642)"/>
</g>
<path id="leg-l" d="M92.5 200.5C86 197.5 83.5 192.5 81 183" stroke="black" stroke-width="8" stroke-linecap="round"/>
<path id="leg-r" d="M147 200.5C153.5 197.5 156 192.5 158.5 183" stroke="black" stroke-width="8" stroke-linecap="round"/>
<g id="face">
<g id="eye-l">
<circle id="Ellipse 93" cx="74.3335" cy="116" r="25" fill="black"/>
<circle id="Ellipse 95" cx="74" cy="111" r="10" fill="white"/>
<path id="Ellipse 96" d="M125 161.5C125 147.841 119.574 134.742 109.916 125.084C100.258 115.426 87.1587 110 73.5 110C59.8414 110 46.7421 115.426 37.084 125.084C27.4259 134.742 22 147.841 22 161.5L73.5 161.5H125Z" fill="#FF9838"/>
</g>
<g id="eye-r">
<circle id="Ellipse 93_2" cx="164.333" cy="116" r="25" fill="black"/>
<circle id="Ellipse 95_2" cx="164" cy="111" r="10" fill="white"/>
<path id="Ellipse 96_2" d="M215 161.5C215 147.841 209.574 134.742 199.916 125.084C190.258 115.426 177.159 110 163.5 110C149.841 110 136.742 115.426 127.084 125.084C117.426 134.742 112 147.841 112 161.5L163.5 161.5H215Z" fill="#FF9838"/>
</g>
<path id="mouth" d="M64 136C64 136 86.9096 149 120 149C153.09 149 176 136 176 136" stroke="black" stroke-width="8" stroke-linecap="round"/>
<path id="nose" d="M118.268 119C119.038 117.667 120.962 117.667 121.732 119L126.062 126.5C126.832 127.833 125.87 129.5 124.33 129.5H115.67C114.13 129.5 113.168 127.833 113.938 126.5L118.268 119Z" fill="black"/>
</g>
</g>
</svg>
