<svg viewBox="0 0 183 216" fill="none" xmlns="http://www.w3.org/2000/svg">
<g id="skull-orange">
<g id="skull">
<mask id="path-1-inside-1_1_880" fill="white">
<path fill-rule="evenodd" clip-rule="evenodd" d="M182.71 90.7563C182.71 103.827 179.947 116.252 174.973 127.479C179.753 132.244 182.71 138.836 182.71 146.118C182.71 160.653 170.927 172.437 156.391 172.437H145.5V197.849C145.5 207.873 137.373 216 127.349 216C117.324 216 109.197 207.873 109.197 197.849V179.877C108.895 179.935 108.593 179.991 108.29 180.046V197.849C108.29 207.873 100.163 216 90.1387 216C80.114 216 71.9874 207.873 71.9874 197.849V179.309C71.6843 179.241 71.3818 179.172 71.0798 179.101V197.849C71.0798 207.873 62.9532 216 52.9286 216C42.9039 216 34.7773 207.873 34.7773 197.849V172.437H26.6093C12.0735 172.437 0.289917 160.653 0.289917 146.118C0.289917 138.517 3.51184 131.669 8.66443 126.864C3.86065 115.799 1.19748 103.588 1.19748 90.7563C1.19748 40.633 41.8305 0 91.9538 0C142.077 0 182.71 40.633 182.71 90.7563Z"/>
</mask>
<path fill-rule="evenodd" clip-rule="evenodd" d="M182.71 90.7563C182.71 103.827 179.947 116.252 174.973 127.479C179.753 132.244 182.71 138.836 182.71 146.118C182.71 160.653 170.927 172.437 156.391 172.437H145.5V197.849C145.5 207.873 137.373 216 127.349 216C117.324 216 109.197 207.873 109.197 197.849V179.877C108.895 179.935 108.593 179.991 108.29 180.046V197.849C108.29 207.873 100.163 216 90.1387 216C80.114 216 71.9874 207.873 71.9874 197.849V179.309C71.6843 179.241 71.3818 179.172 71.0798 179.101V197.849C71.0798 207.873 62.9532 216 52.9286 216C42.9039 216 34.7773 207.873 34.7773 197.849V172.437H26.6093C12.0735 172.437 0.289917 160.653 0.289917 146.118C0.289917 138.517 3.51184 131.669 8.66443 126.864C3.86065 115.799 1.19748 103.588 1.19748 90.7563C1.19748 40.633 41.8305 0 91.9538 0C142.077 0 182.71 40.633 182.71 90.7563Z" fill="#FF9838"/>
<path d="M174.973 127.479L167.659 124.239L165.433 129.264L169.325 133.144L174.973 127.479ZM145.5 172.437V164.437H137.5V172.437H145.5ZM109.197 179.877H117.197V170.191L107.686 172.021L109.197 179.877ZM108.29 180.046L106.859 172.175L100.29 173.369V180.046H108.29ZM71.9874 179.309H79.9874V172.906L73.7396 171.503L71.9874 179.309ZM71.0798 179.101L72.9129 171.313L63.0798 168.999V179.101H71.0798ZM34.7773 172.437H42.7773V164.437H34.7773V172.437ZM8.66443 126.864L14.1202 132.715L18.2529 128.862L16.0028 123.678L8.66443 126.864ZM182.288 130.719C187.705 118.491 190.71 104.964 190.71 90.7563H174.71C174.71 102.689 172.189 114.012 167.659 124.239L182.288 130.719ZM190.71 146.118C190.71 136.624 186.845 128.019 180.622 121.814L169.325 133.144C172.66 136.47 174.71 141.047 174.71 146.118H190.71ZM156.391 180.437C175.345 180.437 190.71 165.072 190.71 146.118H174.71C174.71 156.235 166.508 164.437 156.391 164.437V180.437ZM145.5 180.437H156.391V164.437H145.5V180.437ZM137.5 172.437V197.849H153.5V172.437H137.5ZM137.5 197.849C137.5 203.455 132.955 208 127.349 208V224C141.792 224 153.5 212.292 153.5 197.849H137.5ZM127.349 208C121.742 208 117.197 203.455 117.197 197.849H101.197C101.197 212.292 112.906 224 127.349 224V208ZM117.197 197.849V179.877H101.197V197.849H117.197ZM109.721 187.917C110.05 187.857 110.38 187.796 110.709 187.733L107.686 172.021C107.411 172.073 107.136 172.125 106.859 172.175L109.721 187.917ZM116.29 197.849V180.046H100.29V197.849H116.29ZM90.1387 224C104.582 224 116.29 212.292 116.29 197.849H100.29C100.29 203.455 95.745 208 90.1387 208V224ZM63.9874 197.849C63.9874 212.292 75.6957 224 90.1387 224V208C84.5323 208 79.9874 203.455 79.9874 197.849H63.9874ZM63.9874 179.309V197.849H79.9874V179.309H63.9874ZM69.2468 186.888C69.5755 186.965 69.905 187.041 70.2352 187.115L73.7396 171.503C73.4636 171.441 73.188 171.378 72.9129 171.313L69.2468 186.888ZM79.0798 197.849V179.101H63.0798V197.849H79.0798ZM52.9286 224C67.3715 224 79.0798 212.292 79.0798 197.849H63.0798C63.0798 203.455 58.535 208 52.9286 208V224ZM26.7773 197.849C26.7773 212.292 38.4856 224 52.9286 224V208C47.3222 208 42.7773 203.455 42.7773 197.849H26.7773ZM26.7773 172.437V197.849H42.7773V172.437H26.7773ZM26.6093 180.437H34.7773V164.437H26.6093V180.437ZM-7.71008 146.118C-7.71008 165.072 7.65525 180.437 26.6093 180.437V164.437C16.4918 164.437 8.28992 156.235 8.28992 146.118H-7.71008ZM3.20868 121.013C-3.49876 127.267 -7.71008 136.207 -7.71008 146.118H8.28992C8.28992 140.827 10.5224 136.07 14.1202 132.715L3.20868 121.013ZM-6.80252 90.7563C-6.80252 104.705 -3.90596 117.998 1.32609 130.05L16.0028 123.678C11.6273 113.599 9.19748 102.472 9.19748 90.7563H-6.80252ZM91.9538 -8C37.4122 -8 -6.80252 36.2147 -6.80252 90.7563H9.19748C9.19748 45.0513 46.2487 8 91.9538 8V-8ZM190.71 90.7563C190.71 36.2147 146.495 -8 91.9538 -8V8C137.659 8 174.71 45.0513 174.71 90.7563H190.71Z" fill="black" mask="url(#path-1-inside-1_1_880)"/>
</g>
<g id="eyes">
<mask id="path-3-inside-2_1_880" fill="white">
<path fill-rule="evenodd" clip-rule="evenodd" d="M52.021 118.891C67.5592 118.891 80.1555 106.295 80.1555 90.7563C80.1555 75.2181 67.5592 62.6218 52.021 62.6218C36.4828 62.6218 23.8866 75.2181 23.8866 90.7563C23.8866 106.295 36.4828 118.891 52.021 118.891ZM130.979 118.891C146.517 118.891 159.113 106.295 159.113 90.7563C159.113 75.2181 146.517 62.6218 130.979 62.6218C115.441 62.6218 102.845 75.2181 102.845 90.7563C102.845 106.295 115.441 118.891 130.979 118.891Z"/>
</mask>
<path fill-rule="evenodd" clip-rule="evenodd" d="M52.021 118.891C67.5592 118.891 80.1555 106.295 80.1555 90.7563C80.1555 75.2181 67.5592 62.6218 52.021 62.6218C36.4828 62.6218 23.8866 75.2181 23.8866 90.7563C23.8866 106.295 36.4828 118.891 52.021 118.891ZM130.979 118.891C146.517 118.891 159.113 106.295 159.113 90.7563C159.113 75.2181 146.517 62.6218 130.979 62.6218C115.441 62.6218 102.845 75.2181 102.845 90.7563C102.845 106.295 115.441 118.891 130.979 118.891Z" fill="white"/>
<path d="M72.1555 90.7563C72.1555 101.876 63.141 110.891 52.021 110.891V126.891C71.9775 126.891 88.1555 110.713 88.1555 90.7563H72.1555ZM52.021 70.6218C63.141 70.6218 72.1555 79.6363 72.1555 90.7563H88.1555C88.1555 70.7998 71.9775 54.6218 52.021 54.6218V70.6218ZM31.8866 90.7563C31.8866 79.6363 40.9011 70.6218 52.021 70.6218V54.6218C32.0645 54.6218 15.8866 70.7998 15.8866 90.7563H31.8866ZM52.021 110.891C40.9011 110.891 31.8866 101.876 31.8866 90.7563H15.8866C15.8866 110.713 32.0645 126.891 52.021 126.891V110.891ZM151.113 90.7563C151.113 101.876 142.099 110.891 130.979 110.891V126.891C150.936 126.891 167.113 110.713 167.113 90.7563H151.113ZM130.979 70.6218C142.099 70.6218 151.113 79.6363 151.113 90.7563H167.113C167.113 70.7998 150.936 54.6218 130.979 54.6218V70.6218ZM110.845 90.7563C110.845 79.6363 119.859 70.6218 130.979 70.6218V54.6218C111.022 54.6218 94.8445 70.7998 94.8445 90.7563H110.845ZM130.979 110.891C119.859 110.891 110.845 101.876 110.845 90.7563H94.8445C94.8445 110.713 111.022 126.891 130.979 126.891V110.891Z" fill="black" mask="url(#path-3-inside-2_1_880)"/>
</g>
<path id="nose" d="M95.4179 112.723C93.8783 110.056 90.0293 110.056 88.4897 112.723L77.0203 132.588C75.4807 135.255 77.4052 138.588 80.4844 138.588H103.423C106.502 138.588 108.427 135.255 106.887 132.588L95.4179 112.723Z" fill="black" stroke="black" stroke-width="4"/>
</g>
</svg>
