<svg viewBox="0 0 504 690" fill="none" xmlns="http://www.w3.org/2000/svg">
<path d="M2.84065 689.493L2.60687 687.701C2.48997 686.689 -11.1088 587.387 -104.469 580.144L-105.521 580.066L-105.365 579.015C-105.248 578.236 -93.6756 501.637 -127.575 457.243C-141.174 439.447 -160.345 429.05 -184.542 426.363L-187.386 426.051L-184.932 424.571C-184.347 424.221 -124.887 387.615 -113.431 328.424C-106.963 295.128 -116.704 260.898 -142.343 226.708L-143.317 225.422L-141.758 225.15C-141.291 225.072 -95.468 217.206 -53.3468 186.013C-14.5377 157.274 28.9472 102.249 15.777 3.25905L15.4653 0.80571L17.3746 2.36339C17.9591 2.86963 67.4446 43.486 132.594 72.7314C192.6 99.6402 278.518 122.11 347.174 76.2751L349.629 74.6395L348.616 77.4044C348.421 77.9885 327.809 135.895 336.42 209.534C344.33 277.449 379.437 372.973 501.67 442.562L503.385 443.536L501.553 444.276C499.099 445.288 256.892 546.031 269.361 664.804L269.517 666.361L268.036 665.816C266.4 665.193 101.383 606.157 4.16548 688.363L2.84065 689.493ZM-103.261 578.353C-16.0963 585.752 2.0224 672.397 4.28236 685.793C97.6035 608.572 250.775 657.872 267.296 663.519C261.88 601.212 325.159 544.629 379.476 508.024C432.936 472.002 488.344 447.781 498.982 443.263C377.411 373.363 342.381 277.76 334.472 209.69C326.873 144.579 341.992 91.6571 345.888 79.4294C276.881 123.706 191.509 101.315 131.737 74.4837C73.5621 48.3537 27.7782 13.1503 18.1149 5.47874C30.3889 103.924 -13.2129 158.871 -52.1389 187.688C-90.2467 215.882 -131.394 225.189 -139.771 226.824C-114.483 261.054 -104.936 295.362 -111.444 328.852C-121.808 382.241 -170.476 417.406 -181.581 424.844C-158.085 428.076 -139.382 438.59 -125.939 456.153C-93.7535 498.366 -102.014 568.968 -103.261 578.353Z" fill="#333333"/>
<path d="M21.1152 643.892L20.8815 642.1C20.7646 641.244 9.46469 555.883 -71.3097 550.392L-72.3618 550.315L-72.2059 549.263C-72.089 548.601 -61.6853 483.412 -90.3636 445.094C-101.936 429.634 -118.379 420.521 -139.226 417.951L-142.031 417.601L-139.615 416.16C-139.109 415.848 -87.2074 383.955 -77.5051 332.98C-72.128 304.747 -80.5054 275.852 -102.443 247.113L-103.417 245.828L-101.819 245.594C-101.43 245.516 -62.7374 239.364 -26.8896 213.312C6.11371 189.323 43.4032 143.021 33.5061 58.7123L33.2333 56.2979L35.1036 57.8556C35.5323 58.206 77.2638 92.8254 132.438 117.553C183.249 140.334 256.152 159.104 315.106 119.345L317.6 117.67L316.587 120.474C316.392 120.98 298.819 170.32 306.222 233.016C313.041 290.845 343.122 372.155 447.743 431.23L449.496 432.243L447.626 432.983C445.522 433.839 238.15 518.265 249.684 621.695L249.879 623.253L248.398 622.707C246.995 622.162 106.643 570.447 22.5569 642.685L21.1152 643.892ZM-70.1408 548.523C4.82785 554.287 20.4528 627.77 22.518 640.114C102.903 572.706 232.305 615.075 247.502 620.371C243.605 577.34 276.57 531.155 342.966 486.645C388.243 456.309 435.196 436.059 444.976 431.97C341.018 372.545 311.015 291.156 304.196 233.172C297.767 178.381 310.274 133.675 313.781 122.499C254.515 160.74 182.157 141.97 131.542 119.306C82.6799 97.4205 44.3383 67.7857 35.6492 60.8151C44.689 144.579 7.28265 190.803 -25.8765 214.908C-57.9447 238.195 -92.3118 245.75 -99.9879 247.23C-78.4403 276.008 -70.2576 304.981 -75.6348 333.369C-84.324 379.048 -126.25 409.579 -136.42 416.393C-116.236 419.431 -100.222 428.699 -88.805 443.964C-61.6464 480.219 -68.8939 539.878 -70.1408 548.523Z" fill="#333333"/>
<path d="M39.3508 598.33L39.156 596.5C39.0781 595.799 30.0382 524.379 -38.1505 520.602L-39.2415 520.524L-39.0467 519.434C-38.9688 518.888 -29.6951 465.11 -53.152 432.905C-62.6984 419.781 -76.4141 411.915 -93.9484 409.54L-96.6759 409.15L-94.338 407.748C-93.9094 407.476 -49.5672 380.294 -41.6574 337.575C-37.3712 314.444 -44.4239 290.884 -62.6205 267.558L-63.6726 266.234L-61.9971 266C-61.6854 265.961 -30.1237 261.483 -0.588264 240.571C26.6483 221.295 57.7034 183.716 51.0793 114.088L50.8455 111.712L52.6768 113.27C53.7289 114.165 135.361 182.431 215.94 182.431C239.007 182.431 261.997 176.823 282.999 162.453L285.493 160.74L284.441 163.583C284.285 163.972 269.712 204.783 275.868 256.537C281.596 304.241 306.651 371.338 393.698 419.976L395.491 420.989L393.581 421.728C391.828 422.39 219.33 490.539 229.89 578.625L230.084 580.222L228.565 579.638C227.396 579.17 111.709 534.816 40.7926 597.084L39.3508 598.33ZM-36.9816 518.694C25.791 522.86 38.9222 583.259 40.8315 594.475C108.319 536.919 213.992 572.317 227.785 577.301C224.279 540.657 251.437 501.949 306.495 465.304C343.589 440.615 382.126 424.338 391.01 420.716C304.663 371.766 279.687 304.591 273.959 256.732C268.66 212.182 278.596 175.655 281.752 165.647C232.227 197.813 172.845 182.742 131.425 164.206C91.8756 146.487 60.8985 122.421 53.2613 116.268C59.0671 185.39 27.8951 222.891 0.541725 242.206C-25.5258 260.626 -53.152 266.467 -60.0488 267.674C-42.2418 291.04 -35.384 314.677 -39.7091 337.964C-46.7618 376.011 -81.9861 401.868 -91.1039 408.021C-74.2321 410.903 -60.945 418.886 -51.5155 431.814C-29.5392 462.072 -35.8126 510.866 -36.9816 518.694Z" fill="#333333"/>
<path d="M57.6254 552.729L57.4306 550.821C57.3526 550.237 50.6117 492.836 -4.99134 490.733L-6.12133 490.695L-5.88754 489.565C-5.8096 489.137 2.25614 446.768 -15.9405 420.638C-23.4607 409.89 -34.4489 403.27 -48.6711 401.011L-51.2817 400.583L-49.0218 399.22C-48.6321 398.986 -11.8881 376.517 -5.77065 342.092C-2.57552 324.062 -8.30337 305.798 -22.7594 287.885L-23.8893 286.483L-22.1359 286.289C-21.1618 286.172 75.0817 274.489 68.6914 169.385L68.5356 167.088L70.289 168.606C71.1073 169.307 132.984 222.307 195.951 222.307C214.693 222.307 233.513 217.634 250.853 205.484L253.385 203.693L252.333 206.614C252.216 206.925 240.605 239.169 245.592 279.98C250.19 317.598 270.257 370.481 339.693 408.644L341.563 409.656L339.576 410.396C338.173 410.903 200.51 462.734 210.095 535.439L210.329 537.113L208.771 536.451C207.874 536.062 116.813 499.067 59.0281 551.366L57.6254 552.729ZM-3.8224 488.864C46.7931 491.434 57.4306 538.866 59.106 548.796C113.657 501.092 195.834 529.52 208.03 534.154C200.939 465.577 320.171 416.043 337.004 409.384C268.27 370.87 248.32 317.948 243.722 280.175C239.553 245.75 246.995 217.361 249.684 208.716C178.456 255.563 84.6671 182.859 70.7955 171.566C75.3934 268.765 -7.21235 285.977 -20.2266 288.041C-6.16029 305.993 -0.705185 324.296 -3.90031 342.482C-9.27748 372.934 -37.9557 394.158 -45.9435 399.571C-32.3837 402.257 -21.7463 408.994 -14.3819 419.587C2.60683 443.964 -2.69241 481.933 -3.8224 488.864Z" fill="#333333"/>
<path d="M75.9001 507.206L75.7053 505.22C75.5494 503.428 71.1463 461.371 28.168 460.982H26.9601L27.2328 459.814C27.3107 459.502 34.1686 428.504 21.1932 408.527C15.6992 400.116 7.43859 394.742 -3.43264 392.639L-5.92639 392.172L-3.74433 390.886C-3.43261 390.692 25.7911 372.934 30.0383 346.882C32.1424 333.915 27.7783 320.986 17.063 308.447L15.7771 306.967L17.7253 306.85C18.4267 306.811 86.4596 301.943 86.3037 224.877V222.658L87.9403 224.137C88.4858 224.644 130.763 262.417 176.079 262.417C190.418 262.417 205.069 258.64 218.785 248.671L221.395 246.802L220.265 249.8C219.915 250.735 186.561 344.507 285.765 397.507L287.753 398.558L285.649 399.259C284.596 399.609 181.807 435.163 190.418 492.486L190.691 494.277L189.054 493.537C188.392 493.226 121.996 463.591 77.3808 505.921L75.9001 507.206ZM29.3369 459.035C67.7954 460.086 75.939 494.628 77.3418 503.156C118.956 465.382 177.793 486.8 188.197 491.045C182.08 437.734 268.348 403.504 282.882 398.13C194.042 349.374 212.784 267.869 217.538 251.864C164.351 287.496 99.2401 236.17 88.213 226.902C87.2389 296.608 30.7397 307.123 19.6736 308.524C29.9214 321.103 34.0517 334.07 31.9086 347.155C28.168 370.053 5.95795 386.642 -0.821959 391.237C9.4648 393.768 17.3747 399.22 22.7908 407.476C34.9479 426.129 30.5448 453.038 29.3369 459.035Z" fill="#333333"/>
<path d="M94.0966 461.761L93.9408 459.58C93.8629 458.373 91.6808 429.906 61.3271 431.152L59.9633 431.191L60.353 429.906C60.3919 429.712 66.0419 410.085 58.2878 396.338C54.8589 390.263 49.2869 386.136 41.7667 384.15L39.5457 383.565L41.5329 382.397C41.7667 382.28 63.4701 369.196 65.847 351.672C66.8991 343.806 63.8988 336.134 56.9241 328.852L55.2096 327.061L57.7033 327.217C59.3399 327.294 97.9542 329.086 103.955 280.136L104.189 278.15L105.591 279.552C106.02 279.98 148.219 321.531 186.677 291.779L189.405 289.677L188.197 292.87C187.963 293.454 166.26 353.23 231.76 386.175L234.02 387.304L231.604 387.966C230.903 388.161 163.026 407.398 170.663 449.338L171.014 451.324L169.221 450.351C168.793 450.117 127.1 427.881 95.6552 460.164L94.0966 461.761ZM63.2753 429.166C88.9533 429.166 94.5252 450.662 95.6552 457.438C124.217 429.751 160.181 444.003 168.403 447.82C163.337 409.968 216.836 390.614 228.721 386.798C172.338 357.085 181.963 307.434 185.431 295.051C150.323 319.545 113.189 289.054 105.591 282.2C99.5517 324.374 68.4967 328.696 59.8075 329.086C66.1588 336.329 68.8473 344 67.7563 351.906C65.6522 367.482 49.7935 379.243 44.3384 382.903C51.3521 385.24 56.6123 389.407 60.0023 395.404C67.0939 407.982 63.7429 424.493 62.574 429.205C62.8078 429.166 63.0416 429.166 63.2753 429.166Z" fill="#333333"/>
<path d="M112.215 416.627L112.254 413.862C112.254 413.784 112.254 407.593 107.89 403.854C104.851 401.245 100.37 400.388 94.6032 401.323L92.7329 401.634L93.5901 399.921C93.6291 399.843 97.7983 391.471 95.2266 384.111C93.9408 380.411 91.1353 377.529 86.8881 375.582L85.1737 374.803L86.7713 373.869C86.9271 373.791 101.149 365.418 101.5 357.007C101.617 354.164 100.058 351.555 96.8632 349.297C96.8242 349.297 96.8242 349.258 96.8242 349.258L97.9542 347.7C97.9542 347.7 97.9542 347.7 97.9932 347.7C98.2269 347.856 101.656 350.153 106.526 349.102C111.904 347.934 117.008 343.222 121.606 335.083L122.424 333.681L123.281 335.044C123.32 335.122 127.646 341.82 135.361 342.871C141.322 343.689 147.751 340.963 154.492 334.849L157.649 331.967L156.051 335.901C155.622 336.952 145.959 361.836 177.677 374.803L181.417 376.322L177.404 376.673C177.248 376.673 160.61 378.191 153.362 388.355C149.933 393.106 149.115 399.103 150.869 406.152L151.609 409.189L149.271 407.125C149.193 407.086 142.842 401.518 133.88 402.219C126.905 402.764 120.203 406.892 113.969 414.446L112.215 416.627ZM98.8894 399.025C103.137 399.025 106.565 400.155 109.176 402.413C112.449 405.217 113.579 409.072 113.969 411.526C120.125 404.633 126.788 400.895 133.724 400.349C140.426 399.804 145.647 402.413 148.414 404.166C147.284 397.623 148.414 391.977 151.765 387.304C157.532 379.243 168.286 376.322 173.819 375.31C150.323 364.172 151.687 345.831 153.323 338.471C147.011 343.494 140.855 345.636 135.088 344.857C128.542 343.962 124.334 339.6 122.58 337.419C117.865 345.286 112.605 349.881 106.916 351.088C104.89 351.516 103.098 351.477 101.617 351.205C102.981 353.035 103.604 355.06 103.487 357.202C103.137 364.99 93.1225 372.194 89.265 374.726C93.1225 376.867 95.7332 379.827 97.058 383.565C99.2011 389.718 97.2139 396.26 96.006 399.22C97.0191 399.064 97.9542 399.025 98.8894 399.025Z" fill="#333333"/>
<path d="M112.215 416.627L112.254 413.862C112.254 413.784 112.254 407.593 107.89 403.854C104.851 401.245 100.37 400.388 94.6032 401.323L92.7329 401.634L93.5901 399.921C93.6291 399.843 97.7983 391.471 95.2266 384.111C93.9408 380.411 91.1353 377.529 86.8881 375.582L85.1737 374.803L86.7713 373.869C86.9271 373.791 101.149 365.418 101.5 357.007C101.617 354.164 100.058 351.555 96.8632 349.297C96.8242 349.297 96.8242 349.258 96.8242 349.258L97.9542 347.7C97.9542 347.7 97.9542 347.7 97.9932 347.7C98.2269 347.856 101.656 350.153 106.526 349.102C111.904 347.934 117.008 343.222 121.606 335.083L122.424 333.681L123.281 335.044C123.32 335.122 127.646 341.82 135.361 342.871C141.322 343.689 147.751 340.963 154.492 334.849L157.649 331.967L156.051 335.901C155.622 336.952 145.959 361.836 177.677 374.803L181.417 376.322L177.404 376.673C177.248 376.673 160.61 378.191 153.362 388.355C149.933 393.106 149.115 399.103 150.869 406.152L151.609 409.189L149.271 407.125C149.193 407.086 142.842 401.518 133.88 402.219C126.905 402.764 120.203 406.892 113.969 414.446L112.215 416.627ZM98.8894 399.025C103.137 399.025 106.565 400.155 109.176 402.413C112.449 405.217 113.579 409.072 113.969 411.526C120.125 404.633 126.788 400.895 133.724 400.349C140.426 399.804 145.647 402.413 148.414 404.166C147.284 397.623 148.414 391.977 151.765 387.304C157.532 379.243 168.286 376.322 173.819 375.31C150.323 364.172 151.687 345.831 153.323 338.471C147.011 343.494 140.855 345.636 135.088 344.857C128.542 343.962 124.334 339.6 122.58 337.419C117.865 345.286 112.605 349.881 106.916 351.088C104.89 351.516 103.098 351.477 101.617 351.205C102.981 353.035 103.604 355.06 103.487 357.202C103.137 364.99 93.1225 372.194 89.265 374.726C93.1225 376.867 95.7332 379.827 97.058 383.565C99.2011 389.718 97.2139 396.26 96.006 399.22C97.0191 399.064 97.9542 399.025 98.8894 399.025Z" fill="black" fill-opacity="0.6"/>
</svg>
